# Rhino

g object_1
v -300 0 -9
v -300 0 9
v 300 0 -9
v 300 0 9
v 300 0 -9
v 300 0 9
v 300 120.0000076293945 -9
v 300 120.0000076293945 9
v 300 120.0000076293945 -9
v 300 120.0000076293945 9
v -300 120.0000076293945 -9
v -300 120.0000076293945 9
v -300 120.0000076293945 -9
v -300 120.0000076293945 9
v -300 0 -9
v -300 0 9
v -300 0 -9
v 300 0 -9
v 300 120.0000076293945 -9
v -300 120.0000076293945 -9
v -300 0 9
v 300 0 9
v 300 120.0000076293945 9
v -300 120.0000076293945 9
vt 0 0
vt 0 0.534883439540863
vt 0.4166666567325592 0
vt 0.4166666567325592 0.534883439540863
vt 0.4166666567325592 0
vt 0.4166666567325592 0.534883439540863
vt 0.5 0
vt 0.5 0.534883439540863
vt 0.5 0
vt 0.5 0.534883439540863
vt 0.9166666865348816 0
vt 0.9166666865348816 0.534883439540863
vt 0.9166666865348816 0
vt 0.9166666865348816 0.534883439540863
vt 1 0
vt 1 0.534883439540863
vt 0 1
vt 0.4166666567325592 1
vt 0.4166666567325592 0.534883975982666
vt 0 0.534883975982666
vt 0.5833333134651184 0.534883975982666
vt 1 0.534883975982666
vt 1 1
vt 0.5833333134651184 1
vn 0 -1 0
vn 0 -1 0
vn 0 -1 0
vn 0 -1 0
vn 1 0 0
vn 1 0 0
vn 1 0 0
vn 1 0 0
vn 0 1 0
vn 0 1 0
vn 0 1 0
vn 0 1 0
vn -1 0 0
vn -1 0 0
vn -1 0 0
vn -1 0 0
vn 0 0 -1
vn 0 0 -1
vn 0 0 -1
vn 0 0 -1
vn 0 0 1
vn 0 0 1
vn 0 0 1
vn 0 0 1
f 1/1/1 3/3/3 4/4/4 2/2/2
f 5/5/5 7/7/7 8/8/8 6/6/6
f 9/9/9 11/11/11 12/12/12 10/10/10
f 13/13/13 15/15/15 16/16/16 14/14/14
f 18/18/18 17/17/17 20/20/20
f 20/20/20 19/19/19 18/18/18
f 22/22/22 24/24/24 21/21/21
f 24/24/24 22/22/22 23/23/23
